<svg data-bbox="39.501 20 120.999 159.999" viewBox="0 0 200 200" xmlns="http://www.w3.org/2000/svg" data-type="shape">
    <g fill="#ffffff">
        <path d="M159.944 81.896c-.697-1.165-1.859-1.864-3.021-1.864h-55.08V23.406c0-1.631-.93-3.029-2.556-3.262-1.394-.466-3.021.233-3.951 1.631l-55.312 94.376c-.697 1.165-.697 2.33 0 3.495s1.859 1.631 3.021 1.631h52.059v55.227c0 1.631.93 2.796 2.556 3.262.232 0 .697.233.93.233 1.162 0 2.324-.466 3.021-1.631l58.566-93.211c.464-.931.464-2.329-.233-3.261z"></path>
    </g>
</svg>