<svg preserveAspectRatio="xMidYMid meet" data-bbox="29.5 29.5 141 141" viewBox="29.5 29.5 141 141" xmlns="http://www.w3.org/2000/svg" data-type="shape" role="presentation" aria-hidden="true" aria-label="">
    <g>
        <path d="M100 29.5c-38.874 0-70.5 31.626-70.5 70.5s31.626 70.5 70.5 70.5 70.5-31.626 70.5-70.5-31.626-70.5-70.5-70.5zm0 133c-34.463 0-62.5-28.037-62.5-62.5S65.537 37.5 100 37.5s62.5 28.037 62.5 62.5-28.037 62.5-62.5 62.5zm30.178-47.411a4 4 0 0 1-5.367 1.789l-26.6-13.3A4.001 4.001 0 0 1 96 100V60.1a4 4 0 0 1 8 0v37.428l24.389 12.195a4 4 0 0 1 1.789 5.366z"></path>
    </g>
</svg>