<svg preserveAspectRatio="xMidYMid meet" data-bbox="20 20 160 160" viewBox="20 20 160 160" height="200" width="200" xmlns="http://www.w3.org/2000/svg">
    <g>
        <path d="M100 180c-44.112 0-80-35.888-80-80s35.888-80 80-80 80 35.888 80 80-35.888 80-80 80zm0-152.381c-39.911 0-72.381 32.47-72.381 72.381s32.47 72.381 72.381 72.381 72.381-32.47 72.381-72.381S139.911 27.619 100 27.619z" data-color="1"></path>
        <path d="M100 139.365a3.81 3.81 0 0 1-3.81-3.81V88.571h-6.349a3.81 3.81 0 1 1 0-7.62H100a3.81 3.81 0 0 1 3.81 3.81v50.794a3.81 3.81 0 0 1-3.81 3.81z" data-color="1"></path>
        <path d="M110.159 139.365H89.841a3.81 3.81 0 1 1 0-7.62h20.317a3.81 3.81 0 0 1 .001 7.62z" data-color="1"></path>
        <path d="M100.051 68.254c-2.104 0-3.86-1.705-3.86-3.81 0-2.104 1.655-3.81 3.759-3.81h.101a3.81 3.81 0 1 1 0 7.62z" data-color="1"></path>
    </g>
</svg>