<svg preserveAspectRatio="xMidYMid meet" data-bbox="20 28.999 160 142.001" viewBox="20 28.999 160 142.001" xmlns="http://www.w3.org/2000/svg"><defs></defs>
    <g>
        <path d="M98.516 85.579V64.111l-.98.365c-1.335.496-3.188.771-5.512.818v-3.085c4.025-.177 6.478-1.854 7.298-4.99h3.012V85.58h-3.818z" data-color="1"></path>
        <path d="M38.756 110.724c.101-1.955.616-3.659 1.531-5.071.484-.742 1.201-1.587 2.131-2.511.937-.934 2.127-1.996 3.535-3.159a85.126 85.126 0 0 0 3.226-2.774c.892-.817 1.625-1.596 2.18-2.321.577-.755.996-1.516 1.246-2.259.25-.744.377-1.568.377-2.447 0-1.458-.423-2.626-1.256-3.468-.837-.846-2.016-1.274-3.502-1.274-.639 0-1.26.13-1.844.388a4.432 4.432 0 0 0-1.557 1.169c-.428.498-.787 1.119-1.066 1.846a7.761 7.761 0 0 0-.44 1.801H39.38c.147-1.09.416-2.099.802-3.007.472-1.109 1.102-2.064 1.872-2.836a8.075 8.075 0 0 1 2.731-1.797c1.051-.425 2.234-.64 3.517-.64 1.389 0 2.639.207 3.715.615 1.064.405 1.964.963 2.676 1.66a7.118 7.118 0 0 1 1.635 2.478c.377.958.569 2.016.569 3.145 0 1.041-.139 2.018-.414 2.9a9.255 9.255 0 0 1-1.24 2.522c-.525.749-1.34 1.67-2.421 2.736-1.101 1.083-2.468 2.326-4.063 3.695-.966.838-1.795 1.58-2.491 2.222-.712.66-1.25 1.203-1.602 1.616l-1.019 1.197h13.329v3.572h-18.22z" data-color="1"></path>
        <path d="M152.106 111.199c-1.298 0-2.5-.213-3.572-.633a8.25 8.25 0 0 1-2.779-1.773 8.422 8.422 0 0 1-1.865-2.761 10.422 10.422 0 0 1-.742-2.897h3.962c.046.483.139.955.278 1.407.213.69.537 1.308.963 1.835.433.535.968.962 1.589 1.272.627.312 1.356.471 2.166.471.773 0 1.488-.144 2.127-.429a4.842 4.842 0 0 0 1.649-1.186 5.112 5.112 0 0 0 1.039-1.794c.232-.671.35-1.413.35-2.205 0-1.68-.503-2.996-1.494-3.909-.973-.896-2.391-1.349-4.214-1.349h-1.501V94.19h.959c3.156 0 4.894-1.627 4.894-4.583 0-1.314-.359-2.346-1.069-3.071-.717-.73-1.723-1.099-2.992-1.099-1.707 0-3.836.769-4.434 4.372h-3.921c.173-1.041.456-1.982.844-2.801.483-1.021 1.097-1.885 1.827-2.569a7.362 7.362 0 0 1 2.515-1.55 8.962 8.962 0 0 1 3.093-.529c1.241 0 2.372.185 3.363.549.981.36 1.832.868 2.529 1.512a6.618 6.618 0 0 1 1.598 2.292c.373.886.562 1.88.562 2.952 0 .948-.2 1.876-.595 2.76-.389.869-.995 1.632-1.802 2.268l-.883.696.998.52c1.182.614 2.094 1.497 2.712 2.623.629 1.145.948 2.461.948 3.912 0 1.292-.234 2.485-.697 3.548a8.362 8.362 0 0 1-1.916 2.761 8.718 8.718 0 0 1-2.882 1.797c-1.109.432-2.322.649-3.607.649z" data-color="1"></path>
        <path d="M127.856 171H72.144v-59.05c0-6.119 4.982-11.098 11.105-11.098h33.502c6.123 0 11.105 4.978 11.105 11.098V171zm-52.145-3.564h48.579V111.95c0-4.154-3.382-7.534-7.538-7.534H83.249c-4.157 0-7.538 3.379-7.538 7.534v55.486z" data-color="1"></path>
        <path d="M180 171h-55.711v-43.656h44.606c6.123 0 11.105 4.978 11.105 11.098V171zm-52.144-3.564h48.578v-28.995c0-4.154-3.382-7.534-7.538-7.534h-41.04v36.529z" data-color="1"></path>
        <path d="M180 171h-55.711v-43.656h44.606c6.123 0 11.105 4.978 11.105 11.098V171zm-52.144-3.564h48.578v-28.995c0-4.154-3.382-7.534-7.538-7.534h-41.04v36.529z" data-color="1"></path>
        <path d="M75.711 171H20v-32.559c0-6.119 4.982-11.098 11.105-11.098h44.606V171zm-52.145-3.564h48.578v-36.529h-41.04c-4.157 0-7.538 3.379-7.538 7.534v28.995z" data-color="1"></path>
        <path d="M100 43.621a1.782 1.782 0 0 1-1.783-1.782V30.782a1.782 1.782 0 0 1 3.566 0v11.057c0 .984-.798 1.782-1.783 1.782z" data-color="1"></path>
        <path d="M89.988 45.794c-.687 0-1.343-.4-1.635-1.071l-4.406-10.101a1.782 1.782 0 1 1 3.269-1.424l4.406 10.101a1.782 1.782 0 0 1-1.634 2.495z" data-color="1"></path>
        <path d="M81.706 51.935a1.77 1.77 0 0 1-1.206-.471l-8.05-7.398a1.78 1.78 0 0 1-.105-2.518 1.784 1.784 0 0 1 2.519-.105l8.05 7.398a1.78 1.78 0 0 1-1.208 3.094z" data-color="1"></path>
        <path d="M118.295 51.935a1.78 1.78 0 0 1-1.208-3.094l8.05-7.398a1.782 1.782 0 1 1 2.414 2.623l-8.05 7.398a1.77 1.77 0 0 1-1.206.471z" data-color="1"></path>
        <path d="M110.012 45.794a1.781 1.781 0 0 1-1.634-2.495l4.406-10.101a1.784 1.784 0 0 1 2.347-.922 1.781 1.781 0 0 1 .922 2.346l-4.406 10.101a1.782 1.782 0 0 1-1.635 1.071z" data-color="1"></path>
    </g>
</svg>