<svg preserveAspectRatio="xMidYMid meet" data-bbox="20 20 160 160" viewBox="20 20 160 160" height="200" width="200" xmlns="http://www.w3.org/2000/svg">
    <g>
        <path d="M99.999 170c-19.304 0-35.008-15.701-35.008-35s15.704-35 35.008-35 35.008 15.701 35.008 35-15.705 35-35.008 35zm0-65c-16.546 0-30.007 13.458-30.007 30s13.461 30 30.007 30 30.007-13.458 30.007-30-13.461-30-30.007-30z" data-color="1"></path>
        <path d="M99.999 180c-24.819 0-45.01-20.187-45.01-45s20.191-45 45.01-45 45.01 20.187 45.01 45-20.192 45-45.01 45zm0-85c-22.061 0-40.009 17.944-40.009 40s17.948 40 40.009 40 40.009-17.944 40.009-40-17.948-40-40.009-40z" data-color="1"></path>
        <path d="M62.929 116.474a2.5 2.5 0 0 1-2.013-1.014L22.851 63.986c-3.892-5.404-3.787-11.725.243-15.754l23.952-24.045a2.5 2.5 0 1 1 3.543 3.528L26.634 51.764c-2.754 2.753-1.672 6.596.258 9.275l38.047 51.448a2.5 2.5 0 0 1-2.01 3.987z" data-color="1"></path>
        <path d="M137.068 116.474a2.5 2.5 0 0 1-2.009-3.986l38.066-51.474c1.911-2.654 2.993-6.496.243-9.246l-23.959-24.052a2.499 2.499 0 1 1 3.543-3.528l23.955 24.048c4.027 4.026 4.132 10.347.258 15.725l-38.084 51.499a2.5 2.5 0 0 1-2.013 1.014z" data-color="1"></path>
        <path d="M75.224 102.962a2.502 2.502 0 0 1-2.294-1.502L44.9 37.164l-.034-.082a12.49 12.49 0 0 1 1.298-11.617A12.493 12.493 0 0 1 56.498 20h87.12c4.141 0 8.004 2.043 10.335 5.465a12.487 12.487 0 0 1 1.298 11.616l-.034.082-28.03 64.296a2.502 2.502 0 0 1-4.585-1.998l28.011-64.253c.906-2.335.617-4.858-.794-6.931-1.418-2.082-3.679-3.277-6.2-3.277h-87.12c-2.521 0-4.781 1.195-6.2 3.279-1.411 2.072-1.7 4.596-.794 6.931l28.011 64.253a2.5 2.5 0 0 1-2.292 3.499z" data-color="1"></path>
        <path d="M135.126 52.5H64.991a2.5 2.5 0 1 1 0-5h70.136a2.5 2.5 0 1 1-.001 5z" data-color="1"></path>
        <path d="M110.816 155c-.416 0-.832-.103-1.21-.312l-9.608-5.31-9.608 5.31a2.502 2.502 0 0 1-3.678-2.59l1.863-11.418-7.871-8.065a2.502 2.502 0 0 1 1.412-4.218l10.776-1.646 4.842-10.314a2.502 2.502 0 0 1 4.528 0l4.842 10.314 10.776 1.646a2.5 2.5 0 0 1 1.412 4.218l-7.871 8.065 1.863 11.418a2.5 2.5 0 0 1-2.468 2.902zm-10.817-10.979c.417 0 .833.104 1.21.312l6.311 3.488-1.237-7.582a2.498 2.498 0 0 1 .678-2.148l5.353-5.486-7.284-1.113a2.502 2.502 0 0 1-1.886-1.409l-3.145-6.7-3.145 6.7a2.502 2.502 0 0 1-1.886 1.409l-7.284 1.113 5.353 5.486a2.5 2.5 0 0 1 .678 2.148l-1.237 7.582 6.311-3.488a2.499 2.499 0 0 1 1.21-.312z" data-color="1"></path>
    </g>
</svg>