<svg preserveAspectRatio="xMidYMid meet" data-bbox="20 20 160 160" viewBox="20 20 160 160" xmlns="http://www.w3.org/2000/svg" data-type="shape" role="presentation" aria-hidden="true" aria-label="">
    <g>
        <path d="M100 20c-44.184 0-80 35.817-80 80.001C20 144.183 55.817 180 100 180s80-35.817 80-79.999S144.183 20 100 20zm30.819 87.148l-31.791 31.79a10.075 10.075 0 0 1-7.148 2.961c-2.587 0-5.174-.987-7.148-2.961-3.948-3.948-3.948-10.348 0-14.296L109.373 100 84.732 75.359c-3.948-3.948-3.948-10.348 0-14.297 3.948-3.948 10.348-3.948 14.296 0l31.791 31.79c3.948 3.948 3.948 10.348 0 14.296z"></path>
    </g>
</svg>