<svg preserveAspectRatio="xMidYMid meet" data-bbox="39.5 20 121 160.001" viewBox="39.5 20 121 160.001" xmlns="http://www.w3.org/2000/svg" data-type="shape" role="presentation" aria-hidden="true" aria-label="">
    <g>
        <path d="M100.001 96.006c20.935 0 37.907-17.014 37.907-38.003S120.936 20 100.001 20c-20.937 0-37.909 17.014-37.909 38.003s16.972 38.003 37.909 38.003zm0-61.103c12.726 0 23.042 10.342 23.042 23.1s-10.316 23.1-23.042 23.1c-12.724 0-23.041-10.342-23.041-23.1s10.317-23.1 23.041-23.1zm60.396 137.099c-6.022-34.368-23.991-61.997-60.396-61.997-36.404 0-54.375 27.629-60.398 61.997-.732 4.175 2.525 7.999 6.753 7.999 3.333 0 6.194-2.416 6.723-5.716 4.467-27.847 17.427-50.281 46.922-50.281 29.494 0 42.453 22.434 46.919 50.281.529 3.3 3.39 5.716 6.723 5.716 4.229-.001 7.485-3.825 6.754-7.999z" clip-rule="evenodd" fill-rule="evenodd"></path>
    </g>
</svg>